PathFileType	4	(X/Y/Z)	subject01_static.trc
DataRate	CameraRate	NumFrames	NumMarkers	Units	OrigDataRate	OrigDataStartFrame	OrigNumFrames
60.00	60.00	       6	49	mm	60.00	151	       300
Frame#	Time	R.ASIS			L.ASIS			V.Sacral			R.Thigh.Upper			R.Thigh.Front			R.Thigh.Rear			L.Thigh.Upper			L.Thigh.Front			L.Thigh.Rear			R.Knee.Lat			R.Knee.Med			L.Knee.Lat			L.Knee.Med			R.Shank.Upper			R.Shank.Front			R.Shank.Rear			L.Shank.Upper			L.Shank.Front			L.Shank.Rear			R.Ankle.Lat			R.Ankle.Med			L.Ankle.Lat			L.Ankle.Med			R.Heel			R.Midfoot.Sup			R.Midfoot.Lat			R.Toe.Tip			L.Heel			L.Midfoot.Sup			L.Midfoot.Lat			L.Toe.Tip			Sternum			R.Acromium			L.Acromium			R.Bicep			L.Bicep			R.Elbow			L.Elbow			R.Wrist.Med			R.Wrist.Lat			L.Wrist.Med			L.Wrist.Lat			R.Toe.Lat			R.Toe.Med			L.Toe.Lat			L.Toe.Med			R.Temple			L.Temple			Top.Head			
		X1	Y1	Z1	X2	Y2	Z2	X3	Y3	Z3	X4	Y4	Z4	X5	Y5	Z5	X6	Y6	Z6	X7	Y7	Z7	X8	Y8	Z8	X9	Y9	Z9	X10	Y10	Z10	X11	Y11	Z11	X12	Y12	Z12	X13	Y13	Z13	X14	Y14	Z14	X15	Y15	Z15	X16	Y16	Z16	X17	Y17	Z17	X18	Y18	Z18	X19	Y19	Z19	X20	Y20	Z20	X21	Y21	Z21	X22	Y22	Z22	X23	Y23	Z23	X24	Y24	Z24	X25	Y25	Z25	X26	Y26	Z26	X27	Y27	Z27	X28	Y28	Z28	X29	Y29	Z29	X30	Y30	Z30	X31	Y31	Z31	X32	Y32	Z32	X33	Y33	Z33	X34	Y34	Z34	X35	Y35	Z35	X36	Y36	Z36	X37	Y37	Z37	X38	Y38	Z38	X39	Y39	Z39	X40	Y40	Z40	X41	Y41	Z41	X42	Y42	Z42	X43	Y43	Z43	X44	Y44	Z44	X45	Y45	Z45	X46	Y46	Z46	X47	Y47	Z47	X48	Y48	Z48	X49	Y49	Z49	

151	2.500000	605.812130	1073.084470	157.653400	607.018190	1060.698000	-104.461590	408.618840	1079.696780	36.276080	543.368590	756.811100	224.300870	593.338750	681.982060	134.066450	522.882390	636.805480	226.525680	515.792600	768.105530	-168.066300	604.654240	718.510250	-111.663090	504.869480	658.830930	-160.307800	475.764100	553.578190	217.069240	469.421940	525.475160	98.483380	476.823000	528.561830	-150.057310	498.835270	519.784420	-36.249040	441.433200	468.973300	236.275250	513.306820	423.964870	184.252300	453.256930	384.005400	253.287900	467.681790	450.301730	-170.587310	517.041200	393.311250	-127.841280	445.656250	409.563750	-181.152570	437.605100	98.101300	255.566570	444.026060	103.684500	165.117690	442.973880	93.640570	-172.212040	464.938050	108.851620	-81.853490	366.679990	70.619900	210.284590	507.356840	80.388490	164.936220	509.366270	63.752690	272.862370	657.167910	50.652440	195.336530	371.612060	75.464910	-115.526110	544.812990	77.038730	-94.775080	523.693480	66.149450	-191.791750	654.149540	48.121330	-127.833950	603.771300	1424.859860	22.289250	487.827060	1550.070070	192.819260	485.018460	1560.415280	-148.472290	524.857240	1504.105100	357.389250	528.739620	1506.276860	-326.065670	520.011960	1471.471800	460.983120	492.342990	1474.713620	-427.815430	674.855650	1466.683840	684.879820	615.826900	1475.141970	709.741820	620.043580	1441.448120	-645.792660	547.661870	1445.527710	-663.633060	599.481630	39.598980	276.571870	594.266910	49.473860	167.882430	585.345090	39.916630	-201.712390	605.910520	51.600950	-100.965950	607.660580	1655.436400	125.043000	666.319210	1645.054080	-0.569460	589.972290	1814.390500	29.284380	
152	2.517000	605.812810	1073.083860	157.651960	607.024410	1060.721680	-104.454730	408.646120	1079.683470	36.263230	543.367920	756.811100	224.301320	593.352050	681.971310	134.088410	522.885010	636.788450	226.530910	515.770510	768.107970	-168.050990	604.684020	718.534910	-111.630330	504.885190	658.812870	-160.312150	475.764100	553.578190	217.069240	469.429930	525.464420	98.497830	476.834840	528.565800	-150.062120	498.835270	519.784420	-36.249040	441.393070	468.931520	236.280840	513.326050	423.963040	184.250080	453.257810	384.003110	253.288670	467.689210	450.291050	-170.591980	517.027530	393.274320	-127.833770	445.693970	409.564940	-181.150940	437.639010	98.104710	255.576950	443.975040	103.698300	165.121840	442.973880	93.640570	-172.212040	464.937350	108.848590	-81.855040	366.704590	70.611920	210.289370	507.361360	80.389630	164.937030	509.353060	63.730570	272.847870	657.167910	50.652440	195.336530	371.657380	75.549710	-115.234210	544.812990	77.038730	-94.775080	523.832150	66.184810	-191.756900	654.170650	48.148770	-127.807650	603.731570	1424.860350	22.280600	487.843690	1550.058840	192.786440	485.000980	1560.393920	-148.458150	524.776060	1504.145870	357.342830	528.732240	1506.259280	-326.141240	520.011470	1471.473020	460.984310	492.310060	1474.802610	-427.887600	674.651550	1466.528200	684.902100	615.732480	1475.269780	709.672360	620.017330	1441.489260	-645.787600	547.786500	1445.639160	-663.618530	599.400880	39.604580	276.554530	594.268920	49.477500	167.861270	585.345090	39.916630	-201.712390	605.916440	51.588120	-100.981610	607.595640	1655.395630	125.038990	666.336300	1645.010860	-0.581130	589.971130	1814.332640	29.263280	
153	2.533000	605.816710	1073.084230	157.650740	607.028690	1060.733150	-104.451690	408.659940	1079.659300	36.248560	543.367610	756.811100	224.301500	593.370730	681.960820	134.124440	522.886110	636.780090	226.533600	515.756470	768.133360	-168.033360	604.702820	718.557620	-111.611110	504.879120	658.836980	-160.306080	475.764100	553.578190	217.069240	469.433780	525.459350	98.504690	476.860470	528.566350	-150.074360	498.835270	519.784420	-36.249040	441.370180	468.904080	236.295780	513.349300	423.961460	184.259540	453.262600	383.992280	253.292300	467.694950	450.288420	-170.595790	517.008790	393.222840	-127.820460	445.721530	409.577090	-181.154040	437.669340	98.108710	255.608220	443.980410	103.709610	165.138460	442.973880	93.640570	-172.212040	464.936400	108.844500	-81.857140	366.717590	70.607690	210.291900	507.380190	80.399180	164.941640	509.362610	63.687270	272.852630	657.167910	50.652440	195.336530	371.684880	75.615480	-114.980260	544.812990	77.038730	-94.775080	523.976930	66.247230	-191.712330	654.235840	48.234870	-127.726310	603.673340	1424.829710	22.270990	487.868130	1550.047360	192.743500	484.984500	1560.348880	-148.476440	524.691530	1504.186400	357.309970	528.742550	1506.246340	-326.215640	520.011230	1471.476200	460.987030	492.284300	1474.854490	-427.931270	674.591740	1466.408570	684.822140	615.665410	1475.391360	709.600160	619.997990	1441.523440	-645.770510	547.949220	1445.719360	-663.610840	599.406980	39.604160	276.555850	594.270750	49.445780	167.859940	585.345090	39.916630	-201.712390	605.923280	51.572760	-100.983670	607.524840	1655.368770	125.031000	666.341060	1644.975460	-0.610480	589.965760	1814.291140	29.245240	
154	2.550000	605.825320	1073.087040	157.651630	607.030880	1060.742310	-104.449130	408.672580	1079.630130	36.229340	543.367610	756.811100	224.301540	593.388730	681.960270	134.167940	522.886110	636.777890	226.534410	515.772340	768.176700	-168.024580	604.729610	718.579770	-111.587720	504.861270	658.884700	-160.292620	475.764130	553.578190	217.069240	469.434910	525.458370	98.506200	476.890690	528.563350	-150.088700	498.835270	519.784420	-36.249040	441.407500	468.899630	236.309250	513.363830	423.963170	184.287550	453.273500	383.968540	253.300230	467.703280	450.292360	-170.599500	516.987430	393.184940	-127.804090	445.737240	409.597050	-181.160100	437.691740	98.112270	255.645170	444.055790	103.705370	165.164050	442.973880	93.640570	-172.212040	464.935850	108.842010	-81.858410	366.721250	70.606510	210.292600	507.416600	80.418460	164.950740	509.384920	63.640920	272.869600	657.167910	50.652440	195.336530	371.694920	75.641460	-114.829970	544.812990	77.038730	-94.775080	524.067200	66.308990	-191.677220	654.314090	48.338970	-127.629620	603.586240	1424.769170	22.257180	487.891970	1550.041260	192.700270	484.981290	1560.267700	-148.536700	524.622500	1504.199830	357.288210	528.760500	1506.240360	-326.266820	520.011660	1471.481450	460.991180	492.266240	1474.873900	-427.950320	674.652100	1466.347660	684.666750	615.654480	1475.477660	709.524480	620.014470	1441.527830	-645.739750	548.122010	1445.783450	-663.603700	599.498960	39.597780	276.575590	594.271730	49.389100	167.879180	585.345090	39.916630	-201.712390	605.920170	51.564800	-100.972390	607.477840	1655.366330	125.010390	666.328610	1644.946290	-0.661130	589.955080	1814.268430	29.220250	
155	2.567000	605.839720	1073.092530	157.655460	607.031250	1060.750980	-104.446040	408.715970	1079.608030	36.201570	543.367610	756.811160	224.301570	593.402340	681.977050	134.212460	522.885930	636.778500	226.534160	515.815430	768.209110	-168.030930	604.772710	718.599000	-111.554210	504.848880	658.918700	-160.278580	475.764130	553.578190	217.069240	469.435000	525.459660	98.505080	476.909360	528.560300	-150.094210	498.835270	519.784420	-36.249040	441.483550	468.907320	236.311610	513.361080	423.969270	184.327560	453.289920	383.933810	253.311830	467.715730	450.302120	-170.604600	516.972780	393.169530	-127.795530	445.759490	409.611270	-181.172200	437.704070	98.114520	255.672380	444.157290	103.679260	165.192340	442.973880	93.640570	-172.212040	464.937040	108.847220	-81.855740	366.718320	70.607450	210.292040	507.426910	80.423910	164.953320	509.408570	63.608650	272.891170	657.167910	50.652440	195.336530	371.711550	75.630690	-114.780260	544.812990	77.038730	-94.775080	524.054870	66.319630	-191.675920	654.382260	48.414180	-127.552040	603.476750	1424.687010	22.236360	487.891750	1550.044430	192.665560	484.989780	1560.154050	-148.623490	524.579160	1504.175900	357.269130	528.775570	1506.236690	-326.285280	520.013980	1471.486690	460.994840	492.254970	1474.875610	-427.954930	674.767580	1466.323120	684.496090	615.716130	1475.490110	709.462890	620.097050	1441.491090	-645.675480	548.298890	1445.846800	-663.583010	599.692260	39.584380	276.617100	594.271180	49.311420	167.923460	585.345090	39.916630	-201.712390	605.894230	51.572320	-100.970270	607.463810	1655.385620	124.968700	666.307740	1644.917240	-0.723210	589.936400	1814.265260	29.176050	
156	2.583000	605.856260	1073.099000	157.661480	607.030150	1060.762700	-104.441020	408.797970	1079.602050	36.170070	543.367680	756.811280	224.301610	593.414180	682.008610	134.255800	522.886350	636.779480	226.533290	515.859560	768.212460	-168.048260	604.820920	718.613280	-111.520580	504.849550	658.916630	-160.269300	475.764130	553.578190	217.069240	469.435150	525.461850	98.503190	476.907470	528.559390	-150.082090	498.835270	519.784420	-36.249040	441.539550	468.909910	236.303090	513.347530	423.977510	184.369450	453.306300	383.901400	253.322630	467.726990	450.316190	-170.611270	516.975160	393.170140	-127.799530	445.792240	409.615660	-181.186780	437.708500	98.115480	255.685550	444.232090	103.632850	165.214420	442.973880	93.640570	-172.212040	464.942080	108.869410	-81.844370	366.710050	70.610150	210.290440	507.381530	80.399610	164.941890	509.422330	63.599890	272.909850	657.167910	50.652440	195.336530	371.715000	75.611420	-114.795110	544.812990	77.038730	-94.775080	523.972470	66.273090	-191.704860	654.425350	48.428800	-127.515240	603.368960	1424.594600	22.208570	487.861720	1550.053100	192.638870	484.992650	1560.033450	-148.709210	524.561650	1504.127810	357.245540	528.783940	1506.229490	-326.279940	520.018920	1471.485840	460.992740	492.254580	1474.873410	-427.952180	674.915340	1466.333500	684.355830	615.834960	1475.406860	709.448610	620.266540	1441.423220	-645.567020	548.495610	1445.912720	-663.540530	599.915410	39.568900	276.665010	594.269470	49.239200	167.976180	585.345090	39.916630	-201.712390	605.849670	51.592540	-100.995870	607.466250	1655.416020	124.903140	666.292360	1644.885740	-0.779690	589.907230	1814.281620	29.103450	
